<svg xmlns="http://www.w3.org/2000/svg" viewBox="0 0 11.48 1">
    <defs>
        <path   id="n" stroke="none"  fill="black" d="M 0 1 V 0 H 0.2 L 0.55 0.6 V 0 H 0.75 V 1 H 0.55 L 0.2 0.4 V 1 H 0"></path>
        <circle id="o" stroke="black" fill="none"  stroke-width="0.2" cx="0.5" cy="0.5" r="0.4"></circle>
        <path   id="p" stroke="none"  fill="black" d="M 0 1 V 0 H 0.4 A 0.35 0.35 0 0 1 0.4 0.7 H 0.1 V 0.5 H 0.4 A 0.15 0.15 0 0 0 0.4 0.2 H 0.2 V 1 H 0"></path>
        <path   id="r" stroke="none"  fill="black" d="M 0 1 V 0 H 0.4 A 0.35 0.35 0 0 1 0.4 0.7 H 0.1 V 0.5 H 0.4 A 0.15 0.15 0 0 0 0.4 0.2 H 0.2 V 1 H 0 M 0.75 1 H 0.5 L 0.2 0.6 H 0.45 L 0.75 1"></path>
        <line   id="-" stroke="black" fill="none"  stroke-width="0.2" x1="0" y1="0.5" x2="0.5" y2="0.5"></line>
    </defs>

    <use href="logo.svg"></use>

    <g transform="translate(1.1, 0.4) scale(0.6)">
        <use href="#r" transform="translate( 0.00)"></use>
        <use href="#o" transform="translate( 0.85)"></use>
        <use href="#-" transform="translate( 1.95)"></use>
        <use href="#o" transform="translate( 2.55)"></use>
        <use href="#r" transform="translate( 3.65)"></use>
        <use href="#o" transform="translate( 4.50)"></use>
        <use href="#-" transform="translate( 5.60)"></use>
        <use href="#p" transform="translate( 6.20)"></use>
        <use href="#o" transform="translate( 7.05)"></use>
        <use href="#n" transform="translate( 8.15)"></use>
        <use href="#o" transform="translate( 9.00)"></use>
        <use href="#r" transform="translate(10.10)"></use>
        <use href="#o" transform="translate(10.95)"></use>
        <use href="#-" transform="translate(12.05)"></use>
        <use href="#p" transform="translate(12.65)"></use>
        <use href="#o" transform="translate(13.50)"></use>
        <use href="#r" transform="translate(14.60)"></use>
        <use href="#o" transform="translate(15.45)"></use>
        <use href="#n" transform="translate(16.55)"></use>
    </g>
</svg>
