<svg xmlns="http://www.w3.org/2000/svg" viewBox="0 0 12.128 1">
    <path stroke="none" fill="black" d="M 0.88341961 0.82091961 A 0.500 0.500 0 0 1 0.17908039 0.11658039 A 0.500 0.500 0 1 0 0.88341961 0.82091961"></path>
    <path stroke="none" fill="black" d="M 0.79456718 0.73206718 A 0.375 0.375 0 1 0 0.26793282 0.20543282 A 0.375 0.375 0 0 1 0.79456718 0.73206718"></path>

    <defs>
        <path   id="n" stroke="none"  fill="black" d="M 0 1 V 0 H 0.2 L 0.55 0.6 V 0 H 0.75 V 1 H 0.55 L 0.2 0.4 V 1 H 0"></path>
        <circle id="o" stroke="black" fill="none"  stroke-width="0.2" cx="0.5" cy="0.5" r="0.4"></circle>
        <path   id="p" stroke="none"  fill="black" d="M 0 1 V 0 H 0.4 A 0.35 0.35 0 0 1 0.4 0.7 H 0.1 V 0.5 H 0.4 A 0.15 0.15 0 0 0 0.4 0.2 H 0.2 V 1 H 0"></path>
        <path   id="r" stroke="none"  fill="black" d="M 0 1 V 0 H 0.4 A 0.35 0.35 0 0 1 0.4 0.7 H 0.1 V 0.5 H 0.4 A 0.15 0.15 0 0 0 0.4 0.2 H 0.2 V 1 H 0 M 0.75 1 H 0.5 L 0.2 0.6 H 0.45 L 0.75 1"></path>
        <line   id="-" stroke="black" fill="none"  stroke-width="0.2" x1="0" y1="0.5" x2="0.5" y2="0.5"></line>
    </defs>

    <g transform="translate(1.1, 0.4) scale(0.6)">
        <use href="#r" transform="translate( 0.00)"></use>
        <use href="#o" transform="translate( 0.91)"></use>
        <use href="#-" transform="translate( 2.07)"></use>
        <use href="#o" transform="translate( 2.73)"></use>
        <use href="#r" transform="translate( 3.89)"></use>
        <use href="#o" transform="translate( 4.80)"></use>
        <use href="#-" transform="translate( 5.96)"></use>
        <use href="#p" transform="translate( 6.62)"></use>
        <use href="#o" transform="translate( 7.53)"></use>
        <use href="#n" transform="translate( 8.69)"></use>
        <use href="#o" transform="translate( 9.60)"></use>
        <use href="#r" transform="translate(10.76)"></use>
        <use href="#o" transform="translate(11.67)"></use>
        <use href="#-" transform="translate(12.83)"></use>
        <use href="#p" transform="translate(13.49)"></use>
        <use href="#o" transform="translate(14.40)"></use>
        <use href="#r" transform="translate(15.56)"></use>
        <use href="#o" transform="translate(16.47)"></use>
        <use href="#n" transform="translate(17.63)"></use>
    </g>
</svg>
